<?xml version="1.0" standalone="no"?>
<!DOCTYPE svg PUBLIC "-//W3C//DTD SVG 20010904//EN"
 "http://www.w3.org/TR/2001/REC-SVG-20010904/DTD/svg10.dtd">
<svg version="1.0" xmlns="http://www.w3.org/2000/svg"
 width="700.000000pt" height="700.000000pt" viewBox="0 0 700.000000 700.000000"
 preserveAspectRatio="xMidYMid meet">
<metadata>
Created by potrace 1.14, written by Peter Selinger 2001-2017
</metadata>
<g transform="translate(0.000000,700.000000) scale(0.100000,-0.100000)"
fill="#000000" stroke="none">
<path d="M1519 6502 c-1 -9 -1 -5938 0 -5979 l1 -32 553 2 552 2 0 962 c1 529
3 964 6 967 3 3 66 -69 139 -162 74 -92 137 -169 140 -172 3 -3 17 -21 32 -42
15 -20 33 -42 40 -50 7 -7 29 -34 48 -58 19 -25 40 -52 47 -60 7 -8 146 -181
309 -385 162 -203 303 -379 312 -390 9 -11 124 -154 256 -318 l238 -297 639 0
c351 0 639 3 639 8 0 4 -10 19 -23 33 -12 15 -65 80 -117 144 -52 65 -100 123
-105 129 -6 6 -40 47 -75 91 -36 44 -67 82 -70 85 -3 3 -73 88 -156 190 -193
238 -184 227 -220 269 -48 56 -296 360 -324 396 -14 18 -95 118 -180 221 -85
104 -173 211 -194 239 -22 27 -42 52 -46 55 -3 3 -57 68 -120 145 -62 77 -119
147 -127 156 -11 13 -2 28 60 105 40 49 135 166 211 259 76 94 154 190 174
214 20 24 110 134 200 245 90 111 176 217 192 236 16 19 65 80 110 135 45 55
89 109 98 120 9 11 55 68 102 125 46 58 87 107 90 110 3 3 39 48 80 100 41 52
77 97 81 100 12 10 309 379 309 384 0 3 -296 6 -657 5 l-658 -1 -50 -65 c-27
-36 -55 -70 -60 -77 -6 -6 -83 -103 -170 -216 -88 -113 -165 -212 -172 -220
-18 -22 -232 -295 -289 -370 -100 -129 -567 -726 -591 -755 -39 -48 -47 -58
-78 -100 -17 -22 -39 -50 -50 -62 l-20 -22 0 1802 0 1802 -552 2 c-304 1 -553
-1 -554 -5z"/>
</g>
</svg>
